<svg width="217" height="82" viewBox="0 0 217 82" fill="none" xmlns="http://www.w3.org/2000/svg">
<path d="M27.4475 3.45579H40.0121L68.2823 62.1667H55.8299L40.6572 52.2877H29.0108L12.4897 62.1667H0L27.4475 3.45579ZM46.4813 42.4837L33.842 15.814V42.4837H46.4813Z" fill="#204082"/>
<path d="M81.2581 67.7261C82.4049 68.4773 83.6514 69.1409 84.9976 69.7169C86.3438 70.2929 87.7399 70.7687 89.1858 71.1443C90.6566 71.5199 92.1524 71.7954 93.6731 71.9707C95.1938 72.171 96.7021 72.2712 98.1978 72.2712C103.283 72.2712 107.197 71.1693 109.94 68.9656C112.707 66.787 114.09 63.5065 114.09 59.1241V57.6216C113.118 58.2978 112.021 58.9238 110.8 59.4998C109.603 60.0507 108.307 60.5265 106.911 60.9272C105.54 61.3278 104.081 61.6409 102.536 61.8662C101.015 62.0666 99.4692 62.1667 97.8987 62.1667C94.5332 62.1667 91.5167 61.6784 88.8492 60.7018C86.2067 59.7001 83.963 58.2477 82.1182 56.3445C80.2984 54.4163 78.9023 52.0498 77.93 49.2451C76.9578 46.4404 76.4717 43.235 76.4717 39.629V17.8424H87.503V36.5488C87.503 41.9078 88.5127 45.8644 90.532 48.4187C92.5762 50.9479 95.7921 52.2126 100.18 52.2126C103.271 52.2126 106.001 51.6741 108.369 50.5973C110.762 49.4955 112.669 48.0931 114.09 46.3903V17.8424H125.159V57.0957C125.159 61.3278 124.561 64.9965 123.364 68.1017C122.168 71.2319 120.423 73.8238 118.129 75.8772C115.86 77.9307 113.068 79.4582 109.753 80.4599C106.437 81.4866 102.673 82 98.4596 82C94.3462 82 90.507 81.5618 86.9421 80.6853C83.3772 79.8088 80.1114 78.6193 77.1448 77.1168L81.2581 67.7261Z" fill="#204082"/>
<path d="M139.481 17.8424H150.55V21.5987C153.492 19.9209 156.296 18.7439 158.964 18.0678C161.656 17.3917 164.286 17.0536 166.854 17.0536C170.22 17.0536 173.336 17.5544 176.203 18.5561C179.07 19.5328 181.55 20.9977 183.644 22.951C185.738 24.9043 187.371 27.3459 188.543 30.2758C189.739 33.1806 190.338 36.5488 190.338 40.3802V62.1667H179.306V42.1832C179.306 39.7542 178.957 37.588 178.259 35.6848C177.586 33.7566 176.602 32.1414 175.305 30.8392C174.034 29.512 172.476 28.5103 170.631 27.8342C168.811 27.133 166.767 26.7824 164.498 26.7824C163.302 26.7824 162.068 26.9076 160.796 27.158C159.55 27.4085 158.316 27.7716 157.094 28.2474C155.897 28.6981 154.738 29.2741 153.616 29.9753C152.495 30.6514 151.472 31.4277 150.55 32.3042V62.1667H139.481V17.8424Z" fill="#204082"/>
<path fill-rule="evenodd" clip-rule="evenodd" d="M215.317 62.1667V17.8424H204.248V62.1667H215.317Z" fill="#204082"/>
<path d="M209.783 11.7948C208.686 11.7948 207.689 11.6445 206.791 11.344C205.919 11.0185 205.171 10.5928 204.548 10.0669C203.924 9.51596 203.438 8.88991 203.089 8.18873C202.765 7.46251 202.603 6.69873 202.603 5.89739C202.603 5.071 202.765 4.30722 203.089 3.60605C203.438 2.87983 203.924 2.25378 204.548 1.7279C205.171 1.20202 205.919 0.788823 206.791 0.488319C207.689 0.162773 208.686 0 209.783 0C210.905 0 211.902 0.162773 212.774 0.488319C213.672 0.788823 214.432 1.20202 215.055 1.7279C215.679 2.25378 216.152 2.87983 216.476 3.60605C216.825 4.30722 217 5.071 217 5.89739C217 6.69873 216.825 7.46251 216.476 8.18873C216.152 8.88991 215.679 9.51596 215.055 10.0669C214.432 10.5928 213.672 11.0185 212.774 11.344C211.902 11.6445 210.905 11.7948 209.783 11.7948Z" fill="#204082"/>
</svg>
